<svg width="30" height="30" viewBox="0 0 30 30" fill="none" xmlns="http://www.w3.org/2000/svg">
<path d="M26.4838 2.95841H26.0218V2.27441C26.0218 1.87659 25.8638 1.49506 25.5825 1.21375C25.3012 0.932449 24.9196 0.774414 24.5218 0.774414H3.22181C2.82399 0.774414 2.44246 0.932449 2.16115 1.21375C1.87985 1.49506 1.72181 1.87659 1.72181 2.27441V2.43341H1.15781C1.11803 2.43341 1.07988 2.44922 1.05175 2.47735C1.02362 2.50548 1.00781 2.54363 1.00781 2.58341V5.22341C1.00781 5.2632 1.02362 5.30135 1.05175 5.32948C1.07988 5.35761 1.11803 5.37341 1.15781 5.37341H1.73381V5.42141C1.73381 5.81924 1.89185 6.20077 2.17315 6.48207C2.45446 6.76338 2.83599 6.92141 3.23381 6.92141H24.5338C24.9316 6.92141 25.3132 6.76338 25.5945 6.48207C25.8758 6.20077 26.0338 5.81924 26.0338 5.42141V4.73741H26.4958C26.7335 4.74984 26.9567 4.85593 27.1163 5.03248C27.276 5.20902 27.3592 5.44164 27.3478 5.67941V6.78941C27.3539 6.99574 27.2912 7.19822 27.1695 7.36496C27.0478 7.53171 26.8741 7.65324 26.6758 7.71041L15.0178 10.5004C14.4415 10.6626 13.9355 11.0117 13.5792 11.4928C13.223 11.974 13.0367 12.5599 13.0498 13.1584V14.7904C12.6811 14.8932 12.3337 15.0608 12.0238 15.2854C11.9997 15.302 11.9811 15.3255 11.9704 15.3527C11.9597 15.38 11.9574 15.4098 11.9638 15.4384C12.2662 16.7902 12.3793 18.1775 12.2998 19.5604C12.2309 20.4853 12.0935 21.4038 11.8888 22.3084C11.5747 23.5658 11.4543 24.8637 11.5318 26.1574C11.593 26.9699 11.7367 27.7741 11.9608 28.5574C11.9689 28.5923 11.9905 28.6225 12.0208 28.6414C12.554 28.9993 13.1788 29.1961 13.8208 29.2084H13.8718C14.5312 29.2058 15.1751 29.0086 15.7228 28.6414C15.7532 28.6225 15.7747 28.5923 15.7828 28.5574C16.0069 27.7741 16.1507 26.9699 16.2118 26.1574C16.2894 24.8637 16.169 23.5658 15.8548 22.3084C15.6521 21.4037 15.5167 20.4852 15.4498 19.5604C15.372 18.1762 15.4871 16.7879 15.7918 15.4354C15.7982 15.4068 15.7959 15.377 15.7852 15.3497C15.7745 15.3225 15.7559 15.299 15.7318 15.2824C15.4193 15.0586 15.07 14.891 14.6998 14.7874V13.1554C14.6937 12.9491 14.7565 12.7466 14.8781 12.5799C14.9998 12.4131 15.1735 12.2916 15.3718 12.2344L27.0178 9.44741C27.5941 9.28525 28.1002 8.93615 28.4564 8.455C28.8127 7.97385 28.9989 7.38795 28.9858 6.78941V5.67941C28.9918 4.17941 27.8668 2.95841 26.4838 2.95841ZM25.7218 2.27441V4.05341L23.3578 1.08041H24.5278C24.844 1.08199 25.1468 1.20829 25.3704 1.43187C25.5939 1.65545 25.7202 1.95823 25.7218 2.27441ZM7.25081 1.07441H10.5508L10.5148 1.09841L14.5198 6.60041H11.2738L7.25081 1.07441ZM10.9018 6.60041H8.09981L4.08581 1.08041H6.93281L6.89981 1.10441L10.9018 6.60041ZM10.8658 1.08041H13.7128L13.6798 1.10441L17.6998 6.60041H14.8888L10.8658 1.08041ZM14.0308 1.08041H16.8778L16.8418 1.10441L20.8468 6.60041H18.0538L14.0308 1.08041ZM17.1958 1.08041H20.0428L20.0068 1.10441L23.9998 6.60041H21.2188L17.1958 1.08041ZM3.22781 1.08041H3.76781L3.73481 1.10441L7.73981 6.60041H4.90481L2.07281 2.49941L2.03381 2.52641V2.27441C2.03539 1.95823 2.16169 1.65545 2.38527 1.43187C2.60885 1.20829 2.91163 1.08199 3.22781 1.08041ZM1.30781 5.07341V2.73341H1.73381V5.07341H1.30781ZM2.03381 5.42141V2.96741L4.53881 6.60041H3.22781C2.9142 6.59889 2.61364 6.47466 2.39048 6.2543C2.16732 6.03395 2.0393 5.73498 2.03381 5.42141ZM24.5338 6.62141H24.3898L20.3608 1.08041H22.9738L25.6738 4.48241L25.7158 4.44641V5.42141C25.7104 5.73395 25.5832 6.03203 25.3613 6.25222C25.1394 6.47241 24.8404 6.59734 24.5278 6.60041L24.5338 6.62141ZM12.1888 22.3684C12.396 21.4501 12.5334 20.5175 12.5998 19.5784C12.6422 18.8938 12.6352 18.207 12.5788 17.5234L12.6808 17.5744C12.7935 17.6341 12.8885 17.7223 12.9564 17.8303C13.0243 17.9382 13.0627 18.062 13.0678 18.1894C13.1448 19.3947 13.1318 20.6041 13.0288 21.8074C12.9227 23.037 12.7221 24.2566 12.4288 25.4554C12.3996 25.5972 12.3255 25.7257 12.2174 25.8219C12.1093 25.9181 11.973 25.9769 11.8288 25.9894C11.7739 24.7714 11.8952 23.5518 12.1888 22.3684ZM13.8328 28.9204C13.2671 28.9088 12.7157 28.7406 12.2398 28.4344C12.1858 28.2364 12.1348 28.0384 12.0898 27.8344C12.5946 27.3727 13.2568 27.1215 13.9408 27.1324C14.5805 27.1562 15.1913 27.4048 15.6658 27.8344C15.6208 28.0324 15.5698 28.2304 15.5158 28.4344C15.0157 28.7602 14.4297 28.9295 13.8328 28.9204ZM15.5668 22.3684C15.8595 23.554 15.9798 24.7755 15.9238 25.9954H15.8488C15.7045 25.9834 15.568 25.9248 15.4598 25.8285C15.3516 25.7322 15.2775 25.6034 15.2488 25.4614C14.6618 23.0869 14.4442 20.6362 14.6038 18.1954C14.6087 18.0661 14.648 17.9404 14.7176 17.8312C14.7872 17.7221 14.8846 17.6334 14.9998 17.5744L15.1888 17.4784C15.1299 18.1769 15.1219 18.8788 15.1648 19.5784C15.2283 20.5172 15.3627 21.4499 15.5668 22.3684ZM15.2098 17.1604L15.1948 17.1334L14.8528 17.3044C14.6935 17.3886 14.5588 17.5128 14.462 17.6648C14.3652 17.8168 14.3096 17.9914 14.3008 18.1714C14.2233 19.3918 14.2373 20.6162 14.3428 21.8344C14.4462 23.0792 14.6468 24.3139 14.9428 25.5274C14.9876 25.7322 15.0973 25.9171 15.2557 26.0544C15.4141 26.1918 15.6127 26.2742 15.8218 26.2894H15.8998C15.8634 26.6921 15.8064 27.0926 15.7288 27.4894C15.2072 27.0582 14.5516 26.8224 13.8748 26.8224C13.198 26.8224 12.5424 27.0582 12.0208 27.4894C11.9428 27.0866 11.8858 26.6801 11.8498 26.2714C12.056 26.2537 12.2511 26.1705 12.4066 26.0339C12.5621 25.8974 12.6697 25.7146 12.7138 25.5124C13.0098 24.2989 13.2104 23.0642 13.3138 21.8194C13.4193 20.6012 13.4333 19.3768 13.3558 18.1564C13.347 17.9764 13.2914 17.8018 13.1947 17.6498C13.0979 17.4978 12.9632 17.3736 12.8038 17.2894L12.5338 17.1544C12.4741 16.583 12.384 16.0152 12.2638 15.4534C12.6439 15.2085 13.0748 15.0535 13.5238 15.0004H14.2498C14.6893 15.0621 15.1089 15.2232 15.4768 15.4714C15.3577 16.0292 15.2686 16.5931 15.2098 17.1604ZM28.6918 6.78941C28.7051 7.32057 28.5418 7.84114 28.2275 8.2695C27.9131 8.69786 27.4655 9.0098 26.9548 9.15641L15.2998 11.9404C15.0365 12.0147 14.8052 12.1744 14.6424 12.3942C14.4795 12.6141 14.3942 12.8818 14.3998 13.1554V14.7004H14.2678C14.1465 14.6836 14.0243 14.6746 13.9018 14.6734C13.7673 14.6725 13.633 14.6815 13.4998 14.7004H13.3498V13.1554C13.3392 12.6263 13.5037 12.1085 13.8179 11.6826C14.132 11.2566 14.5781 10.9465 15.0868 10.8004L26.7328 8.01641C26.9962 7.94209 27.2274 7.78247 27.3903 7.56259C27.5531 7.34271 27.6385 7.07499 27.6328 6.80141V5.69141C27.6442 5.3741 27.5293 5.06522 27.3134 4.83243C27.0975 4.59964 26.7981 4.46191 26.4808 4.44941H26.0218V3.25841H26.4838C27.7018 3.25841 28.6918 4.34441 28.6918 5.67941V6.78941Z" fill="#1D1D1B"/>
</svg>
