<svg width="24" height="24" viewBox="0 0 24 24" fill="none" xmlns="http://www.w3.org/2000/svg">
<g clip-path="url(#clip0_171_118)">
<path d="M12 4.99995C8.141 4.99995 5 8.14095 5 12C5 15.859 8.141 19 12 19C15.859 19 19 15.859 19 12C19 8.14095 15.859 4.99995 12 4.99995ZM12 18C8.691 18 6 15.309 6 12C6 8.69095 8.691 5.99995 12 5.99995C15.309 5.99995 18 8.69095 18 12C18 15.309 15.309 18 12 18ZM13 8.99995C13 9.55195 12.552 9.99995 12 9.99995C11.448 9.99995 11 9.55195 11 8.99995C11 8.44795 11.448 7.99995 12 7.99995C12.552 7.99995 13 8.44795 13 8.99995ZM16 12C16 12.552 15.552 13 15 13C14.448 13 14 12.552 14 12C14 11.448 14.448 11 15 11C15.552 11 16 11.448 16 12ZM10 12C10 12.552 9.552 13 9 13C8.448 13 8 12.552 8 12C8 11.448 8.448 11 9 11C9.552 11 10 11.448 10 12ZM13 15C13 15.552 12.552 16 12 16C11.448 16 11 15.552 11 15C11 14.448 11.448 14 12 14C12.552 14 13 14.448 13 15ZM22.579 9.00195C22.347 8.18395 22.017 7.39395 21.597 6.64395C22.13 6.05595 22.114 5.14295 21.546 4.57595L19.425 2.45495C19.142 2.17195 18.765 2.01595 18.364 2.01595C17.985 2.01595 17.628 2.15595 17.352 2.40995C16.597 1.98795 15.808 1.65895 14.998 1.42895C14.96 0.635953 14.303 0.00195312 13.5 0.00195312H10.5C9.697 0.00195312 9.04 0.635953 9.002 1.42895C8.192 1.65895 7.403 1.98895 6.648 2.40995C6.372 2.15595 6.015 2.01595 5.636 2.01595C5.236 2.01595 4.859 2.17195 4.575 2.45495L2.454 4.57595C1.887 5.14295 1.87 6.05595 2.403 6.64395C1.982 7.39395 1.653 8.18395 1.421 9.00195C0.631 9.04295 0 9.69895 0 10.5V13.5C0 14.301 0.631 14.957 1.421 14.998C1.653 15.815 1.983 16.606 2.403 17.356C2.152 17.631 2.014 17.987 2.014 18.363C2.014 18.763 2.17 19.141 2.453 19.425L4.574 21.546C4.857 21.829 5.234 21.985 5.635 21.985C6.014 21.985 6.371 21.845 6.647 21.591C7.402 22.013 8.191 22.342 9.001 22.572C9.039 23.365 9.696 23.999 10.499 23.999H13.499C14.302 23.999 14.959 23.365 14.997 22.572C15.807 22.342 16.596 22.012 17.351 21.591C17.627 21.845 17.984 21.985 18.363 21.985C18.763 21.985 19.14 21.829 19.424 21.546L21.545 19.425C21.828 19.142 21.984 18.764 21.984 18.363C21.984 17.986 21.846 17.632 21.595 17.356C22.016 16.606 22.345 15.815 22.577 14.998C23.367 14.957 23.998 14.301 23.998 13.5V10.5C23.998 9.69895 23.367 9.04295 22.577 9.00195H22.579ZM23 13.5C23 13.775 22.775 14 22.5 14H21.801L21.708 14.381C21.469 15.36 21.077 16.3 20.544 17.176L20.339 17.511L20.839 18.011C20.934 18.106 20.985 18.231 20.985 18.364C20.985 18.498 20.933 18.624 20.839 18.718L18.718 20.839C18.623 20.934 18.498 20.985 18.364 20.985C18.231 20.985 18.106 20.933 18.01 20.838L17.506 20.337L17.172 20.539C16.287 21.075 15.349 21.466 14.382 21.702L14 21.795V22.5C14 22.775 13.775 23 13.5 23H10.5C10.225 23 10 22.775 10 22.5V21.795L9.618 21.702C8.651 21.466 7.713 21.075 6.828 20.539L6.494 20.337L5.989 20.839C5.894 20.934 5.769 20.985 5.636 20.985C5.502 20.985 5.377 20.933 5.282 20.839L3.161 18.718C3.066 18.623 3.015 18.497 3.015 18.364C3.015 18.231 3.067 18.106 3.161 18.011L3.661 17.511L3.456 17.176C2.923 16.3 2.531 15.361 2.292 14.381L2.199 14H1.5C1.225 14 1 13.775 1 13.5V10.5C1 10.225 1.225 9.99995 1.5 9.99995H2.199L2.292 9.61895C2.531 8.63995 2.923 7.69995 3.456 6.82395L3.661 6.48895L3.161 5.98895C2.966 5.79395 2.966 5.47695 3.161 5.28195L5.282 3.16095C5.377 3.06595 5.502 3.01495 5.636 3.01495C5.769 3.01495 5.894 3.06695 5.99 3.16195L6.494 3.66295L6.828 3.46095C7.713 2.92495 8.651 2.53395 9.618 2.29795L10 2.20495V1.49995C10 1.22495 10.225 0.999953 10.5 0.999953H13.5C13.775 0.999953 14 1.22495 14 1.49995V2.20495L14.382 2.29795C15.349 2.53395 16.287 2.92495 17.172 3.46095L17.506 3.66295L18.011 3.16095C18.106 3.06595 18.231 3.01495 18.364 3.01495C18.498 3.01495 18.623 3.06695 18.718 3.16095L20.839 5.28195C21.034 5.47695 21.034 5.79395 20.839 5.98895L20.339 6.48895L20.544 6.82395C21.077 7.69995 21.469 8.63895 21.708 9.61895L21.801 9.99995H22.5C22.775 9.99995 23 10.225 23 10.5V13.5Z" fill="black"/>
</g>
<defs>
<clipPath id="clip0_171_118">
<rect width="24" height="24" fill="white"/>
</clipPath>
</defs>
</svg>
