<svg width="24" height="24" viewBox="0 0 24 24" fill="none" xmlns="http://www.w3.org/2000/svg">
<g clip-path="url(#clip0_168_17)">
<path d="M14 23.5C14 23.776 13.776 24 13.5 24H3.837C2.506 24 1.305 23.385 0.625 22.354C0.21 21.725 0 21.004 0 20.214C0 16.567 3.741 12.334 5.97 10.135C6.634 9.481 7 8.6 7 7.656V1H5.5C5.224 1 5 0.776 5 0.5C5 0.224 5.224 0 5.5 0H17.5C17.776 0 18 0.224 18 0.5C18 0.776 17.776 1 17.5 1H16V7.657C16 8.515 16.31 9.337 16.874 9.971C17.058 10.177 17.039 10.493 16.832 10.677C16.625 10.861 16.309 10.842 16.126 10.635C15.399 9.818 15 8.76 15 7.657V1H8V7.657C8 8.871 7.528 10.004 6.672 10.847C5.8 11.707 4.339 13.246 3.118 15H9.5C9.776 15 10 15.224 10 15.5C10 15.776 9.776 16 9.5 16H2.5C2.49 16 2.481 15.995 2.471 15.994C1.62 17.395 1 18.872 1 20.214C1 20.806 1.155 21.34 1.46 21.803C1.954 22.552 2.843 22.999 3.837 22.999H13.5C13.776 22.999 14 23.224 14 23.5ZM20 18C20 19.103 19.103 20 18 20C16.897 20 16 19.103 16 18C16 16.897 16.897 16 18 16C19.103 16 20 16.897 20 18ZM19 18C19 17.449 18.551 17 18 17C17.449 17 17 17.449 17 18C17 18.551 17.449 19 18 19C18.551 19 19 18.551 19 18ZM23.332 19.904C23.433 20.292 23.376 20.696 23.172 21.041C22.754 21.754 21.835 21.993 21.119 21.574L20.896 21.443C20.488 21.783 20.015 22.049 19.5 22.229V22.5C19.5 23.327 18.827 24 18 24C17.173 24 16.5 23.327 16.5 22.5V22.229C15.985 22.049 15.512 21.783 15.104 21.443L14.881 21.574C14.166 21.992 13.247 21.754 12.828 21.041C12.625 20.696 12.568 20.292 12.669 19.904C12.77 19.516 13.016 19.191 13.361 18.987L13.595 18.85C13.531 18.55 13.501 18.274 13.501 18C13.501 17.726 13.531 17.449 13.595 17.15L13.361 17.013C13.016 16.81 12.77 16.485 12.669 16.096C12.568 15.708 12.625 15.304 12.829 14.959C13.248 14.246 14.169 14.008 14.882 14.426L15.105 14.557C15.513 14.217 15.986 13.951 16.501 13.771V13.5C16.501 12.673 17.174 12 18.001 12C18.828 12 19.501 12.673 19.501 13.5V13.771C20.016 13.951 20.489 14.217 20.897 14.557L21.12 14.426C21.835 14.008 22.754 14.246 23.173 14.959C23.376 15.304 23.433 15.708 23.332 16.096C23.231 16.484 22.985 16.809 22.64 17.013L22.406 17.15C22.47 17.45 22.5 17.726 22.5 18C22.5 18.274 22.47 18.551 22.406 18.85L22.64 18.987C22.985 19.19 23.231 19.515 23.332 19.904ZM21.577 16.477L22.133 16.15C22.248 16.083 22.33 15.974 22.363 15.845C22.397 15.716 22.378 15.581 22.31 15.467C22.242 15.351 22.134 15.269 22.004 15.236C21.874 15.201 21.74 15.221 21.625 15.289L21.084 15.607C20.887 15.722 20.638 15.69 20.477 15.529C20.047 15.099 19.493 14.786 18.874 14.626C18.653 14.569 18.499 14.37 18.499 14.142V13.5C18.499 13.224 18.275 13 17.999 13C17.723 13 17.499 13.224 17.499 13.5V14.142C17.499 14.37 17.345 14.569 17.124 14.626C16.505 14.786 15.951 15.099 15.521 15.529C15.36 15.691 15.111 15.722 14.914 15.607L14.373 15.289C14.259 15.222 14.125 15.203 13.994 15.236C13.865 15.269 13.756 15.351 13.689 15.466C13.621 15.581 13.602 15.716 13.636 15.845C13.669 15.974 13.751 16.083 13.866 16.15L14.422 16.477C14.618 16.592 14.712 16.826 14.65 17.045C14.547 17.406 14.499 17.709 14.499 18C14.499 18.291 14.547 18.594 14.65 18.955C14.712 19.174 14.619 19.408 14.422 19.523L13.866 19.85C13.751 19.917 13.669 20.026 13.636 20.155C13.602 20.284 13.621 20.419 13.689 20.533C13.757 20.649 13.865 20.731 13.995 20.764C14.125 20.798 14.26 20.779 14.374 20.711L14.915 20.393C14.994 20.347 15.082 20.324 15.168 20.324C15.297 20.324 15.426 20.374 15.522 20.471C15.951 20.901 16.505 21.213 17.125 21.374C17.346 21.431 17.5 21.63 17.5 21.858V22.5C17.5 22.776 17.724 23 18 23C18.276 23 18.5 22.776 18.5 22.5V21.858C18.5 21.63 18.654 21.431 18.875 21.374C19.494 21.213 20.048 20.901 20.478 20.471C20.639 20.309 20.889 20.278 21.085 20.393L21.626 20.711C21.741 20.779 21.876 20.799 22.005 20.764C22.134 20.731 22.243 20.649 22.31 20.534C22.378 20.419 22.397 20.284 22.363 20.155C22.33 20.026 22.248 19.917 22.133 19.85L21.577 19.523C21.381 19.408 21.287 19.174 21.349 18.955C21.452 18.594 21.5 18.291 21.5 18C21.5 17.709 21.452 17.406 21.349 17.045C21.287 16.826 21.38 16.592 21.577 16.477Z" fill="black"/>
</g>
<defs>
<clipPath id="clip0_168_17">
<rect width="24" height="24" fill="white"/>
</clipPath>
</defs>
</svg>
