<svg width="24" height="24" viewBox="0 0 24 24" fill="none" xmlns="http://www.w3.org/2000/svg">
<path d="M23.9343 17.076L21.9303 5.718C21.5503 3.564 19.6863 2 17.4993 2H6.08028C4.13628 2 2.47928 3.39 2.14128 5.305L0.0642805 17.076C-0.151719 18.301 0.18228 19.549 0.981281 20.501C1.78028 21.454 2.95228 22 4.19528 22H5.49928C5.77528 22 5.99928 21.776 5.99928 21.5C5.99928 21.224 5.77528 21 5.49928 21H4.19528C3.24828 21 2.35528 20.584 1.74728 19.858C1.13928 19.132 0.884281 18.182 1.04828 17.25L3.12528 5.479C3.27228 4.649 3.74828 3.951 4.40628 3.509L7.01328 18.282C7.39328 20.436 9.25728 22 11.4453 22H19.8033C21.0473 22 22.2183 21.454 23.0173 20.501C23.8163 19.549 24.1503 18.301 23.9343 17.076ZM22.2513 19.858C21.6433 20.584 20.7503 21 19.8033 21H11.4453C9.74328 21 8.29428 19.784 7.99828 18.108L5.34828 3.09C5.58328 3.031 5.82828 3 6.08028 3H17.4983C19.1993 3 20.6493 4.216 20.9453 5.892L22.9493 17.25C23.1143 18.183 22.8593 19.133 22.2503 19.858H22.2513ZM17.8903 8H9.49928C9.22328 8 8.99928 7.776 8.99928 7.5C8.99928 7.224 9.22328 7 9.49928 7H17.8903C18.1663 7 18.3903 7.224 18.3903 7.5C18.3903 7.776 18.1663 8 17.8903 8ZM18.5963 12H10.2053C9.92928 12 9.70528 11.776 9.70528 11.5C9.70528 11.224 9.92928 11 10.2053 11H18.5963C18.8723 11 19.0963 11.224 19.0963 11.5C19.0963 11.776 18.8723 12 18.5963 12ZM19.8023 15.5C19.8023 15.776 19.5783 16 19.3023 16H10.9113C10.6353 16 10.4113 15.776 10.4113 15.5C10.4113 15.224 10.6353 15 10.9113 15H19.3023C19.5783 15 19.8023 15.224 19.8023 15.5Z" fill="black"/>
</svg>
