<svg width="30" height="30" viewBox="0 0 30 30" fill="none" xmlns="http://www.w3.org/2000/svg">
<path d="M8.11951 16.5657L10.3202 12.7541L8.11951 8.94238H3.71824L2.87947 10.3952L3.48838 10.7468L4.12418 9.64551H7.71363L9.5083 12.7541L7.71363 15.8626H4.12418L2.32945 12.7541L3.04002 11.5234L2.43105 11.1718L1.51758 12.7541L3.71824 16.5657H8.11951Z" fill="black"/>
<path d="M5.91937 14.7655C7.02832 14.7655 7.93055 13.8633 7.93055 12.7543C7.93055 11.6453 7.02832 10.7432 5.91937 10.7432C4.81043 10.7432 3.9082 11.6454 3.9082 12.7543C3.9082 13.8633 4.81037 14.7655 5.91937 14.7655ZM7.22742 12.7544C7.22742 13.3175 6.86971 13.7987 6.36949 13.9826C5.85955 13.7957 5.51121 13.3043 5.51121 12.7544C5.51121 12.2045 5.85955 11.7131 6.36937 11.5262C6.86959 11.71 7.22742 12.1912 7.22742 12.7544ZM5.07521 11.7563C4.90453 12.0537 4.80809 12.3959 4.80809 12.7543C4.80809 13.1129 4.90459 13.4551 5.07527 13.7525C4.79174 13.5124 4.61127 13.1542 4.61127 12.7544C4.61127 12.3546 4.79174 11.9964 5.07521 11.7563Z" fill="black"/>
<path d="M4.74879 17.5537L1.56445 21.7919L3.64272 26.6687L8.90525 27.3073L12.0896 23.0691L10.0113 18.1923L4.74879 17.5537ZM8.58703 26.5604L4.13045 26.0197L2.37047 21.8897L5.06707 18.3006L9.52365 18.8414L11.2836 22.9713L8.58703 26.5604Z" fill="black"/>
<path d="M7.71794 20.2177C7.1269 19.9798 6.47868 19.9864 5.89268 20.2362C5.30663 20.4859 4.85288 20.9489 4.6151 21.5399C4.37727 22.1309 4.38389 22.7792 4.63362 23.3652C4.88335 23.9513 5.34635 24.4049 5.93733 24.6427C6.22526 24.7587 6.52667 24.8165 6.82796 24.8165C7.14512 24.8165 7.46206 24.7524 7.76258 24.6243C8.34864 24.3745 8.80239 23.9115 9.04016 23.3205C9.27799 22.7295 9.27137 22.0814 9.02165 21.4953C8.77192 20.9092 8.30897 20.4554 7.71794 20.2177ZM6.16831 20.883C6.3803 20.7927 6.60378 20.7475 6.82743 20.7475C7.03983 20.7475 7.25247 20.7882 7.4555 20.8699C7.6127 20.9332 7.75702 21.0181 7.88534 21.1216C7.37985 20.9892 6.832 21.0213 6.32311 21.2378C5.80977 21.4567 5.40466 21.8337 5.15059 22.2959C5.16419 22.1286 5.20298 21.9625 5.26737 21.8024C5.43507 21.3856 5.75505 21.0591 6.16831 20.883ZM8.3879 23.0581C8.2202 23.4748 7.90022 23.8013 7.48696 23.9774C7.07364 24.1535 6.61649 24.1582 6.19983 23.9905C5.94852 23.8893 5.73044 23.7326 5.55794 23.5337C5.52753 22.8219 5.93557 22.1675 6.59862 21.8848C7.25798 21.6043 8.0088 21.7597 8.50221 22.2695C8.528 22.5347 8.49014 22.8039 8.3879 23.0581Z" fill="black"/>
<path d="M16.4924 15.7359L16.9531 15.5996L16.7538 14.9254L16.4924 15.0026V14.172L16.9531 14.0358L16.7538 13.3615L16.4924 13.4388V12.6081L16.9531 12.4719L16.7538 11.7976L16.4924 11.8748V11.0549L16.9894 10.9079L16.7901 10.2336L16.4924 10.3216V9.49096L16.9894 9.344L16.7901 8.66971L16.4924 8.75771V7.92703L16.9894 7.78008L16.7901 7.10578L16.4924 7.19379V6.64225H18.5045V2.69238H10.0215V6.64225H12.0335V8.51203L11.5365 8.65898L11.7358 9.33328L12.0335 9.24527V10.076L11.5365 10.2229L11.7358 10.8972L12.0335 10.8092V11.6399L11.5365 11.7868L11.7358 12.4611L12.0335 12.3731V13.1931L11.5002 13.3508L11.6995 14.0251L12.0335 13.9263V14.757L11.5001 14.9146L11.6994 15.5889L12.0334 15.4901V16.3209L11.5 16.4786L11.6994 17.1529L12.0334 17.0541V18.0577H16.4923V15.7359H16.4924ZM10.7246 5.93912V3.39551H17.8014V5.93912H16.4924H12.0335H10.7246ZM12.7367 6.64225H15.7893V7.40162L12.7367 8.30414V6.64225ZM12.7367 9.03744L15.7893 8.13492V8.9656L12.7367 9.86812V9.03744ZM12.7367 10.6014L15.7893 9.69885V10.5295L12.7367 11.4321V10.6014ZM12.7367 12.1653L15.7893 11.2628V12.0827L12.7367 12.9853V12.1653ZM12.7367 13.7184L15.7893 12.8159V13.6465L12.7367 14.5491V13.7184ZM12.7367 15.2823L15.7893 14.3798V15.2105L12.7367 16.113V15.2823ZM12.7367 17.3547V16.8463L15.7893 15.9438V17.3547H12.7367Z" fill="black"/>
<path d="M25.6904 19.846L28.4833 17.053L22.4849 11.0547L19.6919 13.8477L21.1147 15.2704L19.7925 16.5925L19.3372 16.3449L19.0014 16.9627L19.2741 17.1109L18.6867 17.6984L18.2313 17.4508L17.8955 18.0685L18.1682 18.2168L17.5809 18.8042L17.1255 18.5566L16.7897 19.1743L17.0624 19.3226L16.4826 19.9024L15.994 19.6367L15.6582 20.2545L15.9642 20.4209L15.3768 21.0082L14.8882 20.7426L14.5524 21.3604L14.8584 21.5267L14.271 22.1141L13.7824 21.8485L13.4466 22.4662L13.7526 22.6326L13.043 23.3422L16.1959 26.4952L17.8378 24.8533L18.2598 25.0828L18.5955 24.465L18.3561 24.3348L18.9435 23.7474L19.3656 23.9769L19.7013 23.3591L19.462 23.229L20.0493 22.6416L20.4714 22.8711L20.8072 22.2533L20.5678 22.1232L21.1476 21.5433L21.6029 21.7909L21.9387 21.1732L21.666 21.0249L22.2534 20.4375L22.7088 20.6852L23.0445 20.0674L22.7718 19.9192L23.3592 19.3318L23.8145 19.5793L24.1503 18.9616L23.8776 18.8134L24.2675 18.4234L25.6904 19.846ZM22.4849 12.049L27.4889 17.053L25.6904 18.8516L24.7648 17.9261L23.1883 16.3496L20.6863 13.8476L22.4849 12.049ZM16.1956 25.5009L14.0371 23.3423L14.3965 22.9829L17.1933 24.5032L16.1956 25.5009ZM17.7117 23.9848L14.915 22.4645L15.5024 21.8771L18.2991 23.3974L17.7117 23.9848ZM18.8176 22.879L16.0209 21.3586L16.6083 20.7712L19.405 22.2916L18.8176 22.879ZM19.9235 21.7731L17.1267 20.2527L17.7066 19.6729L20.5033 21.1932L19.9235 21.7731ZM21.0217 20.6748L18.225 19.1545L18.8123 18.5671L21.6091 20.0874L21.0217 20.6748ZM22.1276 19.569L19.3308 18.0487L19.9182 17.4612L22.715 18.9816L22.1276 19.569ZM23.2334 18.4632L20.4367 16.9427L21.6118 15.7676L22.6911 16.8469L23.7704 17.9262L23.2334 18.4632Z" fill="black"/>
</svg>
